<?xml version="1.0" encoding="utf-8"?>
<!-- Generator: Adobe Illustrator 27.0.0, SVG Export Plug-In . SVG Version: 6.00 Build 0)  -->
<svg version="1.1" id="Layer_1" xmlns="http://www.w3.org/2000/svg" xmlns:xlink="http://www.w3.org/1999/xlink" x="0px" y="0px"
	 viewBox="0 0 150 50" style="enable-background:new 0 0 150 50;" xml:space="preserve">
<style type="text/css">
	.st0{fill:#FFFFFF;}
</style>
<path class="st0" d="M20.86,45.42c-3.32,0-5.93-2.34-5.88-7.21l0.09-11.23l-3.05-0.18l-0.18-4.33l3.32,0.09l0.04-5.75l5.97,0.09
	l-0.04,5.84l5.13,0.22l-0.22,4.47l-5.04-0.22l-0.09,9.29c-0.04,2.52,1.15,3.54,2.61,3.54c0.93,0,1.95-0.13,2.79-0.44l0.71,3.72
	C24.18,45.11,22.59,45.42,20.86,45.42z"/>
<path class="st0" d="M36.69,46.3c-4.91,0-8.93-3.98-8.93-12.52c0-8.85,4.2-12.83,9.33-12.83c5.4,0,8.67,4.16,8.67,12.52
	C45.76,42.63,41.56,46.3,36.69,46.3z M36.78,26.62c-1.95,0-3.1,2.43-3.1,7.08c0,5.04,1.33,7.56,3.27,7.56c1.9,0,3.05-2.26,3.05-7.39
	C40.01,29.05,38.86,26.62,36.78,26.62z"/>
<path class="st0" d="M71.34,11.69l-7.84,0.29L57.27,45.1l-7.55,0.17l5.61-33.01l-7.44,0.29l0.86-7.09L72.43,4.6L71.34,11.69z"/>
<path class="st0" d="M87.13,44.87l-6.35,0.46l-0.17-3.95c-2.12,2.4-4.46,4-7.09,4c-3.6,0-6.81-3.2-6.81-10.47
	c0-11.67,6.64-20.94,13.44-20.94c2.23,0,3.83,0.86,4.98,2.46l1.09-2.8l6.35,0.34L87.13,44.87z M80.38,21.07
	c-2.57,0-5.83,5.78-5.83,12.81c0,3.03,0.92,4.86,2.86,4.86c1.14,0,2.63-0.86,3.49-1.77l2.4-14.47
	C82.78,21.7,81.64,21.07,80.38,21.07z"/>
<path class="st0" d="M112.7,20.96c-1.83-1.03-3.95-1.54-5.49-1.54c-1.54,0-2.29,1.26-2.29,2.63c0,4.12,6.64,6.58,6.64,13.44
	c0,6.64-4.63,10.47-11.27,10.47c-2.97,0-6.06-0.86-8.64-2.35l3.09-6.69c2.06,1.43,4.69,2.23,6.81,2.23c1.49,0,2.46-1.09,2.46-2.52
	c0-4.46-6.58-6.23-6.58-13.67c0-5.55,4.23-9.78,10.13-9.78c2.46,0,5.38,0.57,7.61,1.6L112.7,20.96z"/>
<path class="st0" d="M129.51,26.62l7.78,15.67l-7.27,3.83l-6.18-14.93l-0.11,0.11l-2.69,13.84l-6.98,0.11L120.82,5l8.01-0.63
	l-3.6,19.05l11.78-10.64l4.12,3.83L129.51,26.62z"/>
</svg>
